<svg width="155" height="64" viewBox="0 0 155 64" fill="none" xmlns="http://www.w3.org/2000/svg">
<path d="M30.0469 43.6875C28.7812 45.2031 26.9922 46.3828 24.6797 47.2266C22.3672 48.0547 19.8047 48.4688 16.9922 48.4688C14.0391 48.4688 11.4453 47.8281 9.21094 46.5469C6.99219 45.25 5.27344 43.375 4.05469 40.9219C2.85156 38.4688 2.23438 35.5859 2.20312 32.2734V29.9531C2.20312 26.5469 2.77344 23.6016 3.91406 21.1172C5.07031 18.6172 6.72656 16.7109 8.88281 15.3984C11.0547 14.0703 13.5938 13.4062 16.5 13.4062C20.5469 13.4062 23.7109 14.375 25.9922 16.3125C28.2734 18.2344 29.625 21.0391 30.0469 24.7266H23.2031C22.8906 22.7734 22.1953 21.3438 21.1172 20.4375C20.0547 19.5312 18.5859 19.0781 16.7109 19.0781C14.3203 19.0781 12.5 19.9766 11.25 21.7734C10 23.5703 9.36719 26.2422 9.35156 29.7891V31.9688C9.35156 35.5469 10.0312 38.25 11.3906 40.0781C12.75 41.9062 14.7422 42.8203 17.3672 42.8203C20.0078 42.8203 21.8906 42.2578 23.0156 41.1328V35.25H16.6172V30.0703H30.0469V43.6875ZM62.7656 43.6875C61.5 45.2031 59.7109 46.3828 57.3984 47.2266C55.0859 48.0547 52.5234 48.4688 49.7109 48.4688C46.7578 48.4688 44.1641 47.8281 41.9297 46.5469C39.7109 45.25 37.9922 43.375 36.7734 40.9219C35.5703 38.4688 34.9531 35.5859 34.9219 32.2734V29.9531C34.9219 26.5469 35.4922 23.6016 36.6328 21.1172C37.7891 18.6172 39.4453 16.7109 41.6016 15.3984C43.7734 14.0703 46.3125 13.4062 49.2188 13.4062C53.2656 13.4062 56.4297 14.375 58.7109 16.3125C60.9922 18.2344 62.3438 21.0391 62.7656 24.7266H55.9219C55.6094 22.7734 54.9141 21.3438 53.8359 20.4375C52.7734 19.5312 51.3047 19.0781 49.4297 19.0781C47.0391 19.0781 45.2188 19.9766 43.9688 21.7734C42.7188 23.5703 42.0859 26.2422 42.0703 29.7891V31.9688C42.0703 35.5469 42.75 38.25 44.1094 40.0781C45.4688 41.9062 47.4609 42.8203 50.0859 42.8203C52.7266 42.8203 54.6094 42.2578 55.7344 41.1328V35.25H49.3359V30.0703H62.7656V43.6875Z" fill="#383838"/>
<path d="M76 52C78.2091 52 80 50.2091 80 48C80 45.7909 78.2091 44 76 44C73.7909 44 72 45.7909 72 48C72 50.2091 73.7909 52 76 52Z" fill="#82619B"/>
<path d="M109.625 38.1562L114.219 13.875H121.227L113.656 48H106.578L101.023 25.1719L95.4688 48H88.3906L80.8203 13.875H87.8281L92.4453 38.1094L98.0703 13.875H104.023L109.625 38.1562ZM132.078 35.9766V48H125.047V13.875H138.359C140.922 13.875 143.172 14.3438 145.109 15.2812C147.062 16.2188 148.562 17.5547 149.609 19.2891C150.656 21.0078 151.18 22.9688 151.18 25.1719C151.18 28.5156 150.031 31.1562 147.734 33.0938C145.453 35.0156 142.289 35.9766 138.242 35.9766H132.078ZM132.078 30.2812H138.359C140.219 30.2812 141.633 29.8438 142.602 28.9688C143.586 28.0938 144.078 26.8438 144.078 25.2188C144.078 23.5469 143.586 22.1953 142.602 21.1641C141.617 20.1328 140.258 19.6016 138.523 19.5703H132.078V30.2812Z" fill="#D774A0"/>
</svg>
